<svg width="21" height="18" viewBox="0 0 21 18" fill="none" xmlns="http://www.w3.org/2000/svg">
<path d="M1.60968 17.3999L20.2696 9.9199C20.4625 9.84306 20.627 9.71488 20.7426 9.5513C20.8582 9.38773 20.9199 9.19598 20.9199 8.9999C20.9199 8.80383 20.8582 8.61208 20.7426 8.4485C20.627 8.28493 20.4625 8.15675 20.2696 8.0799L1.60968 0.599903C1.44811 0.533998 1.27153 0.506746 1.09588 0.520606C0.920223 0.534467 0.751023 0.589003 0.603541 0.679295C0.456059 0.769587 0.334934 0.892795 0.251094 1.0378C0.167254 1.18281 0.123336 1.34506 0.123303 1.5099L0.11261 6.1199C0.11261 6.6199 0.508265 7.0499 1.04293 7.1099L16.1527 8.9999L1.04293 10.8799C0.508265 10.9499 0.11261 11.3799 0.11261 11.8799L0.123303 16.4899C0.123303 17.1999 0.90392 17.6899 1.60968 17.3999Z" fill="white"/>
</svg>
