<svg width="24" height="24" viewBox="0 0 24 24" fill="none" xmlns="http://www.w3.org/2000/svg">
<path fill-rule="evenodd" clip-rule="evenodd" d="M0.0833438 2.07442C0.0833438 1.54633 0.293127 1.03987 0.666543 0.666454C1.03996 0.293038 1.54642 0.0832546 2.07451 0.0832546H21.9233C22.1851 0.0828272 22.4443 0.134023 22.6862 0.23391C22.9281 0.333798 23.1479 0.480415 23.333 0.665369C23.5182 0.850323 23.665 1.06998 23.7652 1.31177C23.8653 1.55355 23.9168 1.81272 23.9167 2.07442V21.9233C23.917 22.185 23.8656 22.4443 23.7656 22.6862C23.6656 22.9281 23.5189 23.1479 23.3339 23.333C23.1488 23.5181 22.9291 23.665 22.6872 23.7651C22.4454 23.8653 22.1862 23.9167 21.9244 23.9166H2.07451C1.81294 23.9166 1.55392 23.865 1.31227 23.7649C1.07062 23.6648 0.851071 23.518 0.66616 23.333C0.481249 23.148 0.334603 22.9284 0.234601 22.6867C0.1346 22.445 0.0832015 22.1859 0.0833438 21.9243V2.07442ZM9.51701 9.17025H12.7443V10.7909C13.2101 9.85925 14.4018 9.02076 16.1925 9.02076C19.6256 9.02076 20.4392 10.8765 20.4392 14.2814V20.5886H16.9649V15.0571C16.9649 13.1179 16.4991 12.0238 15.3161 12.0238C13.6748 12.0238 12.9923 13.2035 12.9923 15.0571V20.5886H9.51701V9.17025ZM3.55868 20.4402H7.03401V9.02076H3.55868V20.4391V20.4402ZM7.53126 5.29625C7.53781 5.59382 7.48486 5.88969 7.37552 6.16651C7.26618 6.44333 7.10264 6.69553 6.89451 6.90829C6.68638 7.12105 6.43785 7.2901 6.1635 7.40551C5.88916 7.52092 5.59452 7.58037 5.29689 7.58037C4.99925 7.58037 4.70462 7.52092 4.43027 7.40551C4.15592 7.2901 3.90739 7.12105 3.69926 6.90829C3.49113 6.69553 3.32759 6.44333 3.21825 6.16651C3.10891 5.88969 3.05596 5.59382 3.06251 5.29625C3.07537 4.71218 3.31643 4.15636 3.73405 3.74783C4.15168 3.3393 4.71267 3.11054 5.29689 3.11054C5.8811 3.11054 6.44209 3.3393 6.85972 3.74783C7.27734 4.15636 7.5184 4.71218 7.53126 5.29625Z" fill="white"/>
</svg>
