<svg width="20" height="24" viewBox="0 0 20 24" fill="none" xmlns="http://www.w3.org/2000/svg">
<path d="M10 12C10.6417 12 11.1912 11.7714 11.6485 11.314C12.1051 10.8575 12.3333 10.3084 12.3333 9.66671C12.3333 9.02504 12.1051 8.47554 11.6485 8.01821C11.1912 7.56165 10.6417 7.33337 10 7.33337C9.35834 7.33337 8.80923 7.56165 8.35267 8.01821C7.89534 8.47554 7.66667 9.02504 7.66667 9.66671C7.66667 10.3084 7.89534 10.8575 8.35267 11.314C8.80923 11.7714 9.35834 12 10 12ZM10 23.6667C6.86945 21.0028 4.53145 18.5283 2.986 16.2432C1.43978 13.9589 0.666672 11.8445 0.666672 9.90004C0.666672 6.98337 1.60506 4.65976 3.48184 2.92921C5.35784 1.19865 7.53056 0.333374 10 0.333374C12.4694 0.333374 14.6422 1.19865 16.5182 2.92921C18.3949 4.65976 19.3333 6.98337 19.3333 9.90004C19.3333 11.8445 18.5606 13.9589 17.0152 16.2432C15.4689 18.5283 13.1306 21.0028 10 23.6667Z" fill="#0E2D52"/>
</svg>
