<svg width="24" height="20" viewBox="0 0 24 20" fill="none" xmlns="http://www.w3.org/2000/svg">
<path d="M21.3333 5.33329L12 11.1666L2.66666 5.33329V2.99996L12 8.83329L21.3333 2.99996M21.3333 0.666626H2.66666C1.37166 0.666626 0.333328 1.70496 0.333328 2.99996V17C0.333328 17.6188 0.579161 18.2123 1.01675 18.6499C1.45433 19.0875 2.04782 19.3333 2.66666 19.3333H21.3333C21.9522 19.3333 22.5457 19.0875 22.9832 18.6499C23.4208 18.2123 23.6667 17.6188 23.6667 17V2.99996C23.6667 2.38112 23.4208 1.78763 22.9832 1.35004C22.5457 0.912458 21.9522 0.666626 21.3333 0.666626Z" fill="#0E2D52"/>
</svg>
